<?xml version="1.0" standalone="no"?>
<!DOCTYPE svg PUBLIC "-//W3C//DTD SVG 20010904//EN"
 "http://www.w3.org/TR/2001/REC-SVG-20010904/DTD/svg10.dtd">
<svg version="1.0" xmlns="http://www.w3.org/2000/svg"
 width="710.000000pt" height="284.000000pt" viewBox="0 0 710.000000 284.000000"
 preserveAspectRatio="xMidYMid meet">

<g transform="translate(0.000000,284.000000) scale(0.100000,-0.100000)"
fill="#000000" stroke="none">
<path d="M1748 733 c7 -3 12 -25 12 -58 0 -33 -5 -55 -12 -58 -7 -3 3 -5 22
-5 19 0 29 2 23 5 -8 3 -13 25 -13 58 0 33 5 55 13 58 6 3 -4 5 -23 5 -19 0
-29 -2 -22 -5z"/>
<path d="M1902 674 c1 -67 1 -67 7 -19 l6 50 25 -48 c14 -26 28 -47 32 -47 5
0 8 29 8 65 0 37 -4 65 -10 65 -5 0 -10 -19 -10 -42 l-1 -43 -23 38 c-35 56
-36 56 -34 -19z"/>
<path d="M2062 673 c1 -67 1 -67 7 -18 l6 50 28 -47 c16 -27 31 -48 33 -48 2
0 3 30 2 68 -1 66 -1 66 -7 17 l-6 -50 -25 48 c-14 26 -28 47 -32 47 -5 0 -7
-30 -6 -67z"/>
<path d="M2236 718 c-9 -12 -16 -32 -16 -43 0 -26 27 -65 45 -65 40 0 62 82
29 114 -21 22 -40 20 -58 -6z m48 -4 c20 -19 20 -54 2 -80 -14 -18 -16 -18
-32 -2 -19 19 -22 62 -4 83 15 18 15 18 34 -1z"/>
<path d="M2391 734 c-1 -14 30 -107 38 -116 4 -5 16 21 28 57 12 36 18 65 14
65 -4 0 -14 -21 -23 -47 l-15 -48 -12 30 c-19 50 -30 71 -30 59z"/>
<path d="M2573 678 c-23 -61 -25 -88 -3 -49 14 27 47 27 55 0 4 -11 9 -18 12
-16 4 4 -36 127 -41 127 0 0 -11 -28 -23 -62z m37 -10 c0 -5 -7 -8 -15 -8 -17
0 -18 2 -9 25 5 13 8 14 15 3 5 -7 9 -16 9 -20z"/>
<path d="M2733 733 c14 -4 17 -16 17 -64 0 -33 4 -59 10 -59 6 0 10 26 10 59
0 48 3 60 18 64 9 3 -3 5 -28 5 -25 0 -37 -2 -27 -5z"/>
<path d="M2890 675 l0 -65 43 1 42 2 -35 6 c-26 4 -36 12 -38 29 -3 19 1 22
30 23 l33 1 -30 7 c-45 9 -41 44 5 52 l35 6 -42 2 -43 1 0 -65z"/>
<path d="M3221 735 c0 -5 6 -21 14 -35 8 -14 14 -40 15 -57 0 -18 5 -33 10
-33 6 0 10 14 10 30 0 17 7 45 16 61 8 17 13 33 10 36 -3 3 -11 -6 -17 -21
-12 -25 -29 -36 -29 -18 0 5 -7 17 -15 28 -8 10 -14 15 -14 9z"/>
<path d="M3396 724 c-33 -32 -11 -114 29 -114 18 0 45 39 45 65 0 26 -27 65
-45 65 -7 0 -21 -7 -29 -16z m54 -49 c0 -18 -7 -39 -16 -46 -34 -28 -61 53
-28 86 22 22 44 2 44 -40z"/>
<path d="M3554 686 c1 -44 5 -62 19 -70 33 -21 52 4 53 70 l2 59 -7 -50 c-7
-57 -16 -75 -36 -75 -16 0 -22 21 -28 85 -3 22 -4 13 -3 -19z"/>
<path d="M3710 675 c0 -37 4 -65 10 -65 6 0 10 14 10 30 0 39 15 38 35 -1 9
-17 19 -29 22 -26 2 3 -1 15 -7 27 -9 16 -9 25 -1 33 16 16 13 54 -5 61 -9 3
-27 6 -40 6 -23 0 -24 -3 -24 -65z m60 40 c15 -18 5 -35 -21 -35 -14 0 -19 7
-19 25 0 28 21 33 40 10z"/>
<path d="M4055 731 c16 -6 21 -20 26 -67 l6 -59 1 62 c2 55 4 62 25 66 12 2 0
5 -28 5 -34 0 -43 -2 -30 -7z"/>
<path d="M4226 727 c-21 -15 -25 -80 -6 -102 15 -18 42 -19 58 -3 17 17 15 84
-4 102 -19 19 -25 20 -48 3z m38 -13 c34 -34 7 -114 -29 -84 -18 15 -20 71 -3
88 15 15 13 15 32 -4z"/>
<path d="M4372 673 c1 -49 3 -56 5 -25 4 44 16 54 28 25 6 -17 7 -17 21 1 13
18 14 17 14 -22 0 -23 5 -42 10 -42 6 0 10 28 10 65 0 36 -4 65 -8 65 -5 0
-15 -15 -24 -32 l-15 -33 -17 33 c-9 17 -19 32 -21 32 -3 0 -4 -30 -3 -67z"/>
<path d="M4558 729 c-21 -12 -25 -88 -6 -107 16 -16 43 -15 58 3 19 22 15 87
-6 102 -21 15 -24 16 -46 2z m52 -54 c0 -18 -7 -38 -15 -45 -36 -30 -63 50
-29 85 22 22 44 2 44 -40z"/>
<path d="M4712 673 c0 -38 3 -53 5 -35 5 40 27 42 43 2 7 -16 17 -30 22 -30 5
0 2 12 -6 27 -12 23 -12 30 1 49 12 19 12 24 -2 38 -9 9 -27 16 -41 16 -23 0
-24 -2 -22 -67z m47 48 c19 -12 6 -41 -19 -41 -15 0 -20 7 -20 25 0 26 14 31
39 16z"/>
<path d="M4870 676 c0 -37 4 -66 10 -66 6 0 10 14 10 30 0 39 15 38 35 -1 9
-17 19 -29 22 -26 2 3 0 15 -6 26 -9 15 -8 26 1 41 18 28 0 54 -41 58 l-31 3
0 -65z m50 44 c23 -13 16 -40 -11 -40 -14 0 -19 7 -19 25 0 28 3 29 30 15z"/>
<path d="M5046 718 c-9 -12 -16 -32 -16 -43 0 -26 27 -65 45 -65 24 0 45 30
45 65 0 58 -45 84 -74 43z m48 -4 c20 -19 20 -54 2 -80 -14 -18 -16 -18 -32
-2 -19 19 -22 62 -4 83 15 18 15 18 34 -1z"/>
<path d="M5204 673 c8 -56 11 -63 20 -44 7 16 6 28 -2 42 -7 10 -12 30 -12 44
0 14 -4 25 -8 25 -4 0 -4 -30 2 -67z"/>
<path d="M5272 703 l-10 -38 -7 35 c-7 29 -9 31 -16 15 -10 -26 -11 -50 -1
-41 4 4 12 -9 18 -31 l11 -38 11 64 c13 72 10 92 -6 34z"/>
</g>
</svg>
